<svg width="91" height="26" viewBox="0 0 91 26" fill="none" xmlns="http://www.w3.org/2000/svg">
<path d="M22.8125 3.51562C22.8125 2.50521 22.4896 1.69792 21.8438 1.09375H27.3906C26.7552 1.64583 26.2396 2.41667 25.8438 3.40625C25.7083 3.73958 25.5729 4.09896 25.4375 4.48438C25.3021 4.86979 25.1458 5.41667 24.9688 6.125L24.4062 8.5625C24.1875 9.5 23.9635 10.5208 23.7344 11.625C22.5365 17.3542 21.8594 20.5573 21.7031 21.2344C21.5573 21.901 21.4844 22.5417 21.4844 23.1562C21.4844 23.7604 21.6198 24.3802 21.8906 25.0156L16.4219 25C16.6719 24.6146 16.8177 24.2552 16.8594 23.9219C16.9115 23.5781 16.9375 23.1615 16.9375 22.6719C16.9375 22.1823 16.8542 21.4531 16.6875 20.4844C16.5208 19.5156 16.3021 18.4115 16.0312 17.1719L14.0469 8.73438C12.4635 15.7135 11.5625 19.7083 11.3438 20.7188C11.1354 21.7292 11.0312 22.5365 11.0312 23.1406C11.0312 23.7448 11.1615 24.3698 11.4219 25.0156L5.95312 25C6.29688 24.4479 6.46875 23.7083 6.46875 22.7812C6.46875 21.2396 5.78125 17.6562 4.40625 12.0312C2.97917 6.13542 1.76562 2.48958 0.765625 1.09375H6.3125C6.125 1.55208 6.03125 2.10417 6.03125 2.75C6.03125 3.38542 6.08333 4.08333 6.1875 4.84375C6.30208 5.60417 6.44792 6.46354 6.625 7.42188C6.8125 8.38021 7.02083 9.40625 7.25 10.5L9.375 19.8438C9.5625 19.0417 9.76042 18.1458 9.96875 17.1562C10.5521 14.3229 10.9479 12.3385 11.1562 11.2031L11.6875 8.21875C12 6.38542 12.1562 5.14583 12.1562 4.5C12.1562 3.85417 12.1146 3.23438 12.0312 2.64062C11.9583 2.04688 11.7604 1.53125 11.4375 1.09375H17.2812C16.8438 1.91667 16.625 2.85938 16.625 3.92188C16.625 4.71354 16.875 6.31771 17.375 8.73438L19.1875 17.2188L19.8438 20.0469L21.1562 13.7969C21.375 12.6719 21.5833 11.5625 21.7812 10.4688L22.3125 7.4375C22.6458 5.44792 22.8125 4.14062 22.8125 3.51562Z" fill="#8A052D"/>
<path d="M34.4531 1.09375C34.0677 2.0625 33.8438 3.03646 33.7812 4.01562C33.7188 4.98438 33.6719 5.81771 33.6406 6.51562C33.6094 7.21354 33.5833 7.9375 33.5625 8.6875C33.5312 10.4375 33.5156 12.0312 33.5156 13.4688C33.5156 19.3646 33.7344 22.9792 34.1719 24.3125C34.2448 24.5417 34.3385 24.7708 34.4531 25H29.0625C29.3854 24.2917 29.5781 23.651 29.6406 23.0781C29.7031 22.5052 29.7604 21.8229 29.8125 21.0312C29.9375 19.3958 30 17.5104 30 15.375C30 13.2396 29.9948 11.7812 29.9844 11C29.974 10.2083 29.9583 9.4375 29.9375 8.6875C29.8646 5.03125 29.6458 2.70833 29.2812 1.71875L29.0625 1.09375H34.4531ZM42.5469 7.98438C42.526 9.06771 42.5156 10.3021 42.5156 11.6875C42.5156 13.6562 42.5521 15.9115 42.625 18.4531C42.6979 20.9844 42.7552 22.4271 42.7969 22.7812C42.8385 23.125 42.8906 23.4271 42.9531 23.6875C43.0573 24.1146 43.2188 24.5521 43.4375 25H39.25C39.5625 24.3646 39.75 23.7448 39.8125 23.1406C39.8854 22.526 39.9427 21.9167 39.9844 21.3125C40.0677 20.0833 40.1094 18.4323 40.1094 16.3594C40.1094 13.849 40.0677 11.5573 39.9844 9.48438L39.8125 5.1875C39.75 3.60417 39.5 2.47917 39.0625 1.8125C38.8854 1.5625 38.6667 1.32292 38.4062 1.09375H43.2656C43.8802 2.51042 44.5312 3.91667 45.2188 5.3125L47.3438 9.46875L51.9062 17.8594C51.9167 17.2031 51.9219 16.5 51.9219 15.75V13.3125C51.9219 8.10417 51.6042 4.34375 50.9688 2.03125C50.8438 1.60417 50.7083 1.29167 50.5625 1.09375L55.2656 1.07812C54.7448 2.11979 54.4167 5.05208 54.2812 9.875C54.2604 10.625 54.25 11.3438 54.25 12.0312L54.2656 13.3438V19.7188C54.2656 22.4167 54.2865 24.1771 54.3281 25H51.7969L47.2656 16.5625L42.5469 7.98438ZM70.9375 19.2188C71.2188 19.6042 71.3594 20.1615 71.3594 20.8906C71.3594 21.6198 71.3281 22.2031 71.2656 22.6406C71.2031 23.0677 71.1042 23.4583 70.9688 23.8125C70.6562 24.6042 70.2448 25 69.7344 25H57.0781C57.8802 24.5729 58.4115 24.1615 58.6719 23.7656C59.1615 23.026 59.4062 22.0885 59.4062 20.9531C59.3958 18.1719 59.3906 15.6562 59.3906 13.4062V5.1875C59.3906 3.63542 59.1458 2.51042 58.6562 1.8125C58.4688 1.5625 58.2448 1.32292 57.9844 1.09375H69.7344C70.4427 1.34375 70.9271 2.21875 71.1875 3.71875C71.2604 4.13542 71.2969 4.54167 71.2969 4.9375C71.2969 5.75 71.1771 6.39583 70.9375 6.875L70.0938 5.1875C69.5312 4.08333 68.724 3.34375 67.6719 2.96875C67.0885 2.76042 66.4323 2.65625 65.7031 2.65625C64.974 2.65625 64.4531 2.68229 64.1406 2.73438C63.8281 2.77604 63.5885 2.88542 63.4219 3.0625C63.151 3.36458 63.0156 3.94271 63.0156 4.79688C63.0156 5.64062 63.0365 6.22917 63.0781 6.5625C63.1198 6.88542 63.2188 7.15104 63.375 7.35938C63.6979 7.76562 64.3802 7.96875 65.4219 7.96875H70.3281C70.0885 8.57292 69.8438 9 69.5938 9.25C69.0938 9.75 68.4167 10 67.5625 10C67.2292 10 66.9115 9.96354 66.6094 9.89062C66.0469 9.75521 65.5521 9.6875 65.125 9.6875C64.6979 9.6875 64.3438 9.72917 64.0625 9.8125C63.7917 9.88542 63.5781 10.0052 63.4219 10.1719C63.151 10.4635 63.0156 10.9896 63.0156 11.75V19.2031C63.0156 21.1615 63.125 22.3229 63.3438 22.6875C63.5625 23.0521 63.8281 23.2708 64.1406 23.3438C64.4531 23.4062 64.974 23.4375 65.7031 23.4375C66.4323 23.4375 67.0938 23.3333 67.6875 23.125C68.2812 22.9167 68.776 22.625 69.1719 22.25C69.5781 21.875 69.9115 21.4323 70.1719 20.9219C70.4323 20.401 70.6875 19.8333 70.9375 19.2188ZM82.4531 23.75C84.4531 23.75 85.7448 21.3125 86.3281 16.4375C86.526 14.7917 86.625 12.8542 86.625 10.625C86.625 5.10417 85.224 2.34375 82.4219 2.34375C79.6198 2.34375 78.2188 5.10417 78.2188 10.625C78.2188 17.1354 79.0573 21.2448 80.7344 22.9531C81.2552 23.4844 81.8281 23.75 82.4531 23.75ZM82.4219 25.3125C79.651 25.3125 77.5625 24.0104 76.1562 21.4062C74.8021 18.8958 74.125 15.3021 74.125 10.625C74.125 5.76042 75.6198 2.69792 78.6094 1.4375C79.6615 1 80.9323 0.78125 82.4219 0.78125C86.6927 0.78125 89.3021 2.67708 90.25 6.46875C90.5625 7.6875 90.7188 9.25521 90.7188 11.1719C90.7188 13.0885 90.5521 14.9583 90.2188 16.7812C89.8854 18.5938 89.375 20.1354 88.6875 21.4062C87.2812 24.0104 85.1927 25.3125 82.4219 25.3125Z" fill="#21030C"/>
</svg>
